<?xml version="1.0" encoding="UTF-8" standalone="no"?>
<svg xmlns:svg="http://www.w3.org/2000/svg" xmlns="http://www.w3.org/2000/svg" version="1.0" width="3450.6279" height="551.09399" xml:space="preserve">
<style type="text/css"><![CDATA[
   text {font-family: Helvetica, Arial, sans-serif; font-size: 100px}
   line {fill: none; stroke: black; stroke-width: 8}
   .smalltext {font-size: 75px}
]]></style>
<g transform="translate(45.020508,37.053494)">
<line class="st0" x1="1718.115" y1="160.795" x2="1500.126" y2="160.795" />
<path d="M 1788.125,160.795 L 1709.189,141.654 C 1714.843,146.4 1718.115,153.407 1718.115,160.795 C 1718.115,168.178 1714.844,175.19 1709.189,179.936 L 1788.125,160.795 z" />
<polygon points="349.628,185.795 349.628,195.297 266.127,243.793 262.128,236.796 349.628,185.795" />
<polygon points="474.125,257.797 474.125,266.792 349.628,195.297 349.628,185.795 474.125,257.797" />
<polygon points="598.627,185.795 598.627,194.794 474.125,266.792 474.125,257.797 598.627,185.795" />
<polygon points="680.625,232.797 676.625,239.794 598.627,194.794 598.627,185.795 680.625,232.797" />
<polygon points="2269.628,185.795 2269.628,195.297 2186.123,243.793 2182.128,236.796 2269.628,185.795" />
<polygon points="2394.13,257.797 2394.13,266.792 2269.628,195.297 2269.628,185.795 2394.13,257.797" />
<polygon points="2518.623,185.795 2518.623,194.794 2394.13,266.792 2394.13,257.797 2518.623,185.795" />
<polygon points="2600.625,232.797 2596.63,239.794 2518.623,194.794 2518.623,185.795 2600.625,232.797" />
<rect width="8" height="99.501999" x="333.125" y="98.792999" />
<rect width="8" height="99.501999" x="358.62701" y="98.792999" />
<rect width="8" height="99.501999" x="582.12799" y="98.294998" />
<rect width="8" height="99.501999" x="607.62598" y="98.294998" />
<rect width="8" height="99.501999" x="2253.125" y="98.792999" />
<rect width="8" height="99.501999" x="2278.623" y="98.792999" />
<rect width="8" height="99.501999" x="2502.1279" y="98.294998" />
<rect width="8" height="99.501999" x="2527.626" y="98.294998" />
<rect width="8" height="107.5" x="2403.125" y="254.799" />
<rect width="8" height="107.5" x="2377.1279" y="254.799" />
<text x="-9.765625e-4" y="301.7915">CH</text>
<text x="144.4136" y="320.5347" class="smalltext">3</text>
<text x="186.1152" y="301.7915">O</text>
<text x="310.127" y="86.2891">O</text>
<text x="688.124" y="301.2896">NH</text>
<text x="832.5386" y="320.0308" class="smalltext">2</text>
<text x="559.123" y="85.7979">O</text>
<text x="975.127" y="193.7891">+</text>
<text x="1131.126" y="193.7891">PhN</text>
<text x="1325.644" y="212.5415" class="smalltext">3</text>
<text x="1919.9985" y="301.7915">CH</text>
<text x="2064.4136" y="320.5347" class="smalltext">3</text>
<text x="2106.1147" y="301.7915">O</text>
<text x="2230.1265" y="86.2891">O</text>
<text x="2608.1235" y="301.2896">NH</text>
<text x="2752.5386" y="320.0308" class="smalltext">2</text>
<text x="2479.1226" y="85.7979">O</text>
<text x="2359.1226" y="445.3013">N</text>
<text x="2431.3276" y="464.0405" class="smalltext">2</text>
<text x="2895.1265" y="193.7891">+</text>
<text x="3051.1255" y="193.791">PhNH</text>
<text x="3317.8511" y="212.5396" class="smalltext">2</text>
</g>
</svg>
